<svg width="198" height="32" viewBox="0 0 198 32" fill="none" xmlns="http://www.w3.org/2000/svg">
<path d="M6.4245 29.664C5.63517 29.664 4.81383 29.472 3.9605 29.088C3.10717 28.7253 2.38183 28.1067 1.7845 27.232C1.2085 26.3573 0.9205 25.1947 0.9205 23.744C0.9205 22.208 1.0485 20.6187 1.3045 18.976C1.58183 17.312 1.93383 15.68 2.3605 14.08C2.8085 12.4587 3.2885 10.9333 3.8005 9.504C4.33383 8.07467 4.8565 6.80533 5.3685 5.696C5.90183 4.58667 6.3925 3.72267 6.8405 3.104C7.30983 2.464 7.68317 2.144 7.9605 2.144C8.5365 2.144 9.0485 2.35733 9.4965 2.784C9.96583 3.21067 10.2005 3.86133 10.2005 4.736C10.2005 4.94933 10.0725 5.472 9.8165 6.304C9.58183 7.11467 9.2725 8.128 8.8885 9.344C8.52583 10.56 8.1205 11.8827 7.6725 13.312C7.24583 14.72 6.8405 16.1493 6.4565 17.6C6.09383 19.0507 5.7845 20.416 5.5285 21.696C5.29383 22.976 5.1765 24.0747 5.1765 24.992C5.1765 25.248 5.32583 25.376 5.6245 25.376C6.05117 25.376 6.6805 25.2693 7.5125 25.056C8.36583 24.8427 9.29383 24.576 10.2965 24.256C11.3205 23.9147 12.3018 23.584 13.2405 23.264C14.1792 22.944 14.9792 22.6773 15.6405 22.464C16.3018 22.2507 16.6752 22.144 16.7605 22.144C17.2938 22.144 17.7205 22.2933 18.0405 22.592C18.3605 22.8907 18.5205 23.3173 18.5205 23.872C18.5205 24.256 18.2645 24.704 17.7525 25.216C17.2405 25.7067 16.5578 26.2187 15.7045 26.752C14.8512 27.264 13.8912 27.7333 12.8245 28.16C11.7792 28.608 10.7018 28.9707 9.5925 29.248C8.48317 29.5253 7.42717 29.664 6.4245 29.664ZM65.4115 12.768C65.4115 13.0667 65.0062 13.3973 64.1955 13.76C63.3848 14.1227 62.2968 14.5067 60.9315 14.912C59.5875 15.296 58.0835 15.68 56.4195 16.064C54.7555 16.4267 53.0702 16.7573 51.3635 17.056C50.7662 19.04 50.1795 21.0453 49.6035 23.072C49.0275 25.0773 48.5262 26.9547 48.0995 28.704C47.9928 29.1733 47.7475 29.5253 47.3635 29.76C47.0008 29.9947 46.6062 30.112 46.1795 30.112C45.6462 30.112 45.2088 29.9627 44.8675 29.664C44.5262 29.3867 44.3555 29.024 44.3555 28.576C44.3555 27.808 44.5688 26.5813 44.9955 24.896C45.4222 23.2107 45.9342 21.3013 46.5315 19.168C45.5502 20.576 44.5582 21.8667 43.5555 23.04C42.5528 24.2133 41.6035 25.1733 40.7075 25.92C39.2995 27.072 37.8382 27.9893 36.3235 28.672C34.8302 29.376 33.3368 29.728 31.8435 29.728C29.4542 29.728 27.7155 29.1307 26.6275 27.936C25.5395 26.7413 24.9955 24.9707 24.9955 22.624C24.9955 21.28 25.1448 19.9467 25.4435 18.624C25.7635 17.28 26.1902 16.0213 26.7235 14.848C27.2568 13.6533 27.8648 12.5973 28.5475 11.68C29.2302 10.7627 29.9448 10.048 30.6915 9.536C31.4382 9.00267 32.1848 8.736 32.9315 8.736C34.7662 8.736 36.0995 9.22666 36.9315 10.208C37.7848 11.168 38.2115 12.352 38.2115 13.76C38.2115 14.72 37.9342 15.6373 37.3795 16.512C36.8462 17.3867 36.1315 18.1973 35.2355 18.944C34.3395 19.6693 33.3368 20.288 32.2275 20.8C31.1395 21.312 30.0408 21.6853 28.9315 21.92C28.9315 22.0693 28.9315 22.2293 28.9315 22.4C28.9315 23.7653 29.1875 24.704 29.6995 25.216C30.2328 25.728 31.0862 25.984 32.2595 25.984C34.2008 25.984 36.1315 25.344 38.0515 24.064C39.9928 22.7627 41.9128 20.7787 43.8115 18.112C42.9368 18.176 42.1795 18.208 41.5395 18.208C40.6222 18.208 40.0248 18.0693 39.7475 17.792C39.4915 17.4933 39.3635 17.0773 39.3635 16.544C39.3635 16.3733 39.4382 16.1707 39.5875 15.936C39.7582 15.68 39.9608 15.456 40.1955 15.264C40.4515 15.0507 40.7182 14.944 40.9955 14.944C41.9128 14.8587 42.7982 14.7733 43.6515 14.688C44.5262 14.6027 45.3582 14.5067 46.1475 14.4C47.6195 11.8827 49.0488 8.97067 50.4355 5.664C51.0328 3.97867 51.6515 2.63467 52.2915 1.632C52.9528 0.607999 53.6355 0.0959988 54.3395 0.0959988C54.7022 0.0959988 55.0328 0.245332 55.3315 0.543999C55.6515 0.821332 55.8115 1.26933 55.8115 1.888C55.8115 2.16533 55.6515 2.85867 55.3315 3.968C55.0328 5.056 54.6275 6.432 54.1155 8.096C53.6035 9.76 53.0488 11.5733 52.4515 13.536C55.8862 12.9813 58.5422 12.48 60.4195 12.032C62.2968 11.5627 63.4808 11.328 63.9715 11.328C64.4195 11.328 64.7715 11.4773 65.0275 11.776C65.2835 12.0747 65.4115 12.4053 65.4115 12.768ZM29.3795 18.752C30.2115 18.304 31.0115 17.792 31.7795 17.216C32.5475 16.6187 33.1768 16.0213 33.6675 15.424C34.1582 14.8053 34.4035 14.2187 34.4035 13.664C34.4035 13.1733 34.3075 12.8213 34.1155 12.608C33.9448 12.3947 33.5928 12.288 33.0595 12.288C32.5902 12.288 32.1208 12.5973 31.6515 13.216C31.1822 13.8347 30.7448 14.6453 30.3395 15.648C29.9555 16.6293 29.6355 17.664 29.3795 18.752ZM65.3963 29.632C64.4789 29.632 63.8283 29.504 63.4443 29.248C63.0816 28.992 62.9003 28.6187 62.9003 28.128C62.9003 27.7013 63.0496 27.3387 63.3483 27.04C63.6469 26.72 64.3083 26.4 65.3323 26.08C66.5269 25.7173 67.6576 25.3013 68.7243 24.832C69.8123 24.3413 70.6976 23.808 71.3803 23.232C72.0843 22.656 72.4363 22.048 72.4363 21.408C72.4363 20.9813 72.2869 20.672 71.9883 20.48C71.7109 20.288 71.3803 20.192 70.9963 20.192C70.6763 20.192 70.2069 20.2453 69.5883 20.352C68.9909 20.4373 68.3296 20.5547 67.6042 20.704C66.8789 20.832 66.1749 20.9493 65.4923 21.056C64.8309 21.1413 64.2656 21.184 63.7963 21.184C62.6869 21.184 61.8656 20.9387 61.3323 20.448C60.7989 19.936 60.5323 19.2853 60.5323 18.496C60.5323 18.0693 60.7563 17.4827 61.2043 16.736C61.6523 15.9893 62.2496 15.168 62.9963 14.272C63.7429 13.376 64.5749 12.48 65.4923 11.584C66.4096 10.688 67.3376 9.86667 68.2763 9.12C69.2363 8.352 70.1429 7.744 70.9963 7.296C71.8496 6.82667 72.5749 6.592 73.1723 6.592C73.8549 6.592 74.3989 6.80533 74.8043 7.232C75.2309 7.65867 75.4443 8.23467 75.4443 8.96C75.4443 9.30133 75.4123 9.67467 75.3483 10.08C75.2843 10.464 75.1243 10.816 74.8683 11.136C74.6123 11.4347 74.2176 11.648 73.6843 11.776C73.1509 11.904 72.4256 11.8827 71.5083 11.712C70.7829 12.2453 70.0256 12.832 69.2363 13.472C68.4683 14.0907 67.7429 14.7413 67.0603 15.424C66.3776 16.0853 65.8123 16.736 65.3643 17.376C66.1536 17.12 67.0496 16.9173 68.0523 16.768C69.0549 16.5973 70.0683 16.512 71.0923 16.512C72.3296 16.512 73.3323 16.736 74.1003 17.184C74.8896 17.6107 75.4656 18.1867 75.8283 18.912C76.2123 19.6373 76.4043 20.4373 76.4043 21.312C76.4043 22.2933 76.0843 23.2747 75.4443 24.256C74.8043 25.2373 73.9509 26.1333 72.8843 26.944C71.8176 27.7547 70.6336 28.4053 69.3323 28.896C68.0309 29.3867 66.7189 29.632 65.3963 29.632ZM99.2943 29.248C98.4409 29.248 97.8009 29.0133 97.3743 28.544C96.9476 28.0747 96.7343 27.5947 96.7343 27.104C96.7343 26.528 96.8409 26.0907 97.0543 25.792C97.2676 25.4933 97.6836 25.2693 98.3023 25.12C99.1129 24.9493 99.9556 24.736 100.83 24.48C101.726 24.224 102.58 23.9573 103.39 23.68C104.222 23.3813 104.948 23.0827 105.566 22.784C106.185 22.464 106.633 22.1653 106.91 21.888C106.569 21.696 106.025 21.472 105.278 21.216C104.532 20.9387 103.7 20.6187 102.782 20.256C101.886 19.872 101.022 19.424 100.19 18.912C99.3583 18.4 98.6756 17.8027 98.1423 17.12C97.6089 16.4373 97.3423 15.6587 97.3423 14.784C97.3423 13.568 97.6516 12.4267 98.2703 11.36C98.8889 10.2933 99.7103 9.30133 100.734 8.384C101.758 7.46667 102.868 6.624 104.062 5.856C105.278 5.088 106.484 4.39467 107.678 3.776C108.894 3.136 109.982 2.57066 110.942 2.08C111.305 1.86666 111.646 1.728 111.966 1.664C112.308 1.57867 112.617 1.536 112.894 1.536C113.854 1.536 114.516 1.77067 114.878 2.24C115.241 2.70933 115.422 3.18933 115.422 3.68C115.422 4.02133 115.262 4.42667 114.942 4.896C114.622 5.344 114.11 5.76 113.406 6.144C112.724 6.528 111.817 6.80533 110.686 6.976C110.494 6.99733 110.324 7.01867 110.174 7.04C109.321 7.46667 108.404 7.97867 107.422 8.576C106.441 9.17333 105.513 9.80267 104.638 10.464C103.785 11.104 103.081 11.744 102.526 12.384C101.972 13.024 101.694 13.6 101.694 14.112C101.694 14.688 101.929 15.2107 102.398 15.68C102.868 16.128 103.465 16.544 104.19 16.928C104.937 17.2907 105.716 17.6427 106.526 17.984C107.358 18.3253 108.137 18.6773 108.862 19.04C109.609 19.3813 110.217 19.7653 110.686 20.192C111.156 20.6187 111.39 21.0987 111.39 21.632C111.39 22.3573 111.145 23.0507 110.654 23.712C110.164 24.3733 109.524 24.992 108.734 25.568C107.945 26.1227 107.081 26.624 106.142 27.072C105.204 27.52 104.276 27.904 103.358 28.224C102.462 28.5653 101.652 28.8213 100.926 28.992C100.201 29.1627 99.6569 29.248 99.2943 29.248ZM139.007 11.872C139.007 12.128 138.921 12.352 138.751 12.544C138.58 12.736 138.367 12.8853 138.111 12.992C137.748 13.1413 137.119 13.3333 136.223 13.568C135.327 13.8027 134.239 14.0693 132.959 14.368C131.7 14.6667 130.345 14.976 128.895 15.296C127.444 15.5947 125.993 15.8827 124.543 16.16C123.988 18.208 123.423 20.32 122.847 22.496C122.271 24.6507 121.695 26.7733 121.119 28.864C120.905 29.6107 120.649 30.176 120.351 30.56C120.052 30.9653 119.54 31.168 118.815 31.168C118.025 31.168 117.492 30.912 117.215 30.4C116.959 29.9093 116.927 29.2373 117.119 28.384C117.673 26.0587 118.185 23.8933 118.655 21.888C119.145 19.8827 119.54 18.2613 119.839 17.024C118.559 17.2373 117.439 17.408 116.479 17.536C115.519 17.6427 114.836 17.6853 114.431 17.664C113.983 17.6213 113.609 17.44 113.311 17.12C113.012 16.8 112.873 16.4053 112.895 15.936C112.937 15.5093 113.129 15.1467 113.471 14.848C113.812 14.528 114.217 14.336 114.687 14.272C115.348 14.208 116.201 14.112 117.247 13.984C118.292 13.856 119.444 13.7067 120.703 13.536C120.98 12.448 121.3 11.328 121.663 10.176C122.025 9.00267 122.399 7.88266 122.783 6.816C123.188 5.728 123.572 4.77866 123.935 3.968C124.297 3.15733 124.628 2.57067 124.927 2.208C125.161 1.93066 125.449 1.71733 125.791 1.568C126.153 1.41866 126.505 1.344 126.847 1.344C127.295 1.344 127.657 1.504 127.935 1.824C128.212 2.144 128.351 2.51733 128.351 2.944C128.351 3.11467 128.34 3.296 128.319 3.488C128.297 3.65867 128.255 3.82933 128.191 4C127.785 5.06667 127.348 6.35733 126.879 7.872C126.431 9.38667 125.961 11.0507 125.471 12.864C127.071 12.6293 128.639 12.3947 130.175 12.16C131.732 11.904 133.14 11.6693 134.399 11.456C135.679 11.2213 136.703 11.0187 137.471 10.848C137.897 10.6987 138.26 10.7307 138.559 10.944C138.857 11.136 139.007 11.4453 139.007 11.872ZM135.527 29.216C134.844 29.216 134.226 29.024 133.671 28.64C133.116 28.2773 132.679 27.7973 132.359 27.2C132.039 26.5813 131.879 25.92 131.879 25.216C131.879 23.8933 132.167 22.6027 132.743 21.344C133.34 20.0853 134.119 18.8907 135.079 17.76C136.039 16.6293 137.084 15.5947 138.215 14.656C139.367 13.696 140.508 12.8747 141.639 12.192C142.791 11.5093 143.836 10.976 144.775 10.592C145.735 10.208 146.482 10.016 147.015 10.016C147.634 10.016 148.135 10.1547 148.519 10.432C148.924 10.688 149.127 11.0933 149.127 11.648C149.127 11.8187 149.084 11.9573 148.999 12.064C149.276 12.128 149.5 12.288 149.671 12.544C149.842 12.8 149.927 13.184 149.927 13.696C149.927 13.9093 149.874 14.464 149.767 15.36C149.66 16.256 149.543 17.344 149.415 18.624C149.308 19.904 149.255 21.2373 149.255 22.624C149.255 22.8373 149.287 23.0293 149.351 23.2C149.415 23.3493 149.554 23.424 149.767 23.424C150.62 23.424 151.484 23.2533 152.359 22.912C153.255 22.5493 154.119 22.112 154.951 21.6C155.804 21.0667 156.572 20.544 157.255 20.032C157.959 19.4987 158.546 19.0613 159.015 18.72C159.506 18.3573 159.826 18.176 159.975 18.176C160.7 18.176 161.063 18.5387 161.063 19.264C161.063 19.456 160.828 19.8613 160.359 20.48C159.911 21.0773 159.292 21.7707 158.503 22.56C157.714 23.328 156.828 24.096 155.847 24.864C154.887 25.6107 153.884 26.2293 152.839 26.72C151.815 27.2107 150.823 27.456 149.863 27.456C148.69 27.456 147.794 27.1787 147.175 26.624C146.578 26.0693 146.151 25.3227 145.895 24.384C145.66 23.424 145.532 22.3467 145.511 21.152C144.423 22.7093 143.292 24.096 142.119 25.312C140.967 26.5067 139.826 27.456 138.695 28.16C137.564 28.864 136.508 29.216 135.527 29.216ZM146.855 13.184C144.764 14.1867 142.887 15.3387 141.223 16.64C139.559 17.92 138.236 19.264 137.255 20.672C136.295 22.08 135.815 23.4347 135.815 24.736C135.815 25.0987 135.986 25.28 136.327 25.28C136.732 25.28 137.266 25.0453 137.927 24.576C138.61 24.1067 139.346 23.488 140.135 22.72C140.924 21.9307 141.714 21.056 142.503 20.096C143.292 19.1147 144.028 18.112 144.711 17.088C145.394 16.064 145.938 15.0827 146.343 14.144C146.492 13.8027 146.663 13.4827 146.855 13.184ZM159.952 29.408C159.419 29.408 158.96 29.216 158.576 28.832C158.214 28.448 158.032 27.8933 158.032 27.168C158.032 26.848 158.075 26.3253 158.16 25.6C158.267 24.8533 158.395 24 158.544 23.04C158.715 22.08 158.875 21.0773 159.024 20.032C159.195 18.9867 159.334 17.9947 159.44 17.056C159.568 16.1173 159.654 15.3173 159.696 14.656C159.739 13.8453 159.952 13.2693 160.336 12.928C160.72 12.5653 161.179 12.384 161.712 12.384C162.139 12.384 162.523 12.4907 162.864 12.704C163.227 12.896 163.451 13.312 163.536 13.952C163.643 14.5707 163.654 15.4667 163.568 16.64C164.507 14.9333 165.456 13.408 166.416 12.064C167.398 10.72 168.422 9.65333 169.488 8.864C171.259 7.52 172.859 6.848 174.288 6.848C175.099 6.848 175.632 7.02933 175.888 7.392C176.144 7.75467 176.272 8.128 176.272 8.512C176.272 8.768 176.208 9.00267 176.08 9.216C175.974 9.42933 175.739 9.65333 175.376 9.888C175.014 10.1227 174.459 10.432 173.712 10.816C172.71 11.328 171.718 12 170.736 12.832C169.776 13.664 168.816 14.7307 167.856 16.032C166.896 17.3333 165.926 18.9333 164.944 20.832C163.963 22.7307 162.95 24.992 161.904 27.616C161.712 28.3413 161.435 28.8213 161.072 29.056C160.731 29.2907 160.358 29.408 159.952 29.408ZM197.226 11.872C197.226 12.128 197.14 12.352 196.97 12.544C196.799 12.736 196.586 12.8853 196.33 12.992C195.967 13.1413 195.338 13.3333 194.442 13.568C193.546 13.8027 192.458 14.0693 191.178 14.368C189.919 14.6667 188.564 14.976 187.114 15.296C185.663 15.5947 184.212 15.8827 182.762 16.16C182.207 18.208 181.642 20.32 181.066 22.496C180.49 24.6507 179.914 26.7733 179.338 28.864C179.124 29.6107 178.868 30.176 178.57 30.56C178.271 30.9653 177.759 31.168 177.034 31.168C176.244 31.168 175.711 30.912 175.434 30.4C175.178 29.9093 175.146 29.2373 175.338 28.384C175.892 26.0587 176.404 23.8933 176.874 21.888C177.364 19.8827 177.759 18.2613 178.058 17.024C176.778 17.2373 175.658 17.408 174.698 17.536C173.738 17.6427 173.055 17.6853 172.649 17.664C172.201 17.6213 171.828 17.44 171.529 17.12C171.231 16.8 171.092 16.4053 171.113 15.936C171.156 15.5093 171.348 15.1467 171.689 14.848C172.031 14.528 172.436 14.336 172.905 14.272C173.567 14.208 174.42 14.112 175.466 13.984C176.511 13.856 177.663 13.7067 178.922 13.536C179.199 12.448 179.519 11.328 179.882 10.176C180.244 9.00267 180.618 7.88266 181.002 6.816C181.407 5.728 181.791 4.77866 182.154 3.968C182.516 3.15733 182.847 2.57067 183.146 2.208C183.38 1.93066 183.668 1.71733 184.01 1.568C184.372 1.41866 184.724 1.344 185.066 1.344C185.514 1.344 185.876 1.504 186.154 1.824C186.431 2.144 186.57 2.51733 186.57 2.944C186.57 3.11467 186.559 3.296 186.538 3.488C186.516 3.65867 186.474 3.82933 186.41 4C186.004 5.06667 185.567 6.35733 185.098 7.872C184.65 9.38667 184.18 11.0507 183.69 12.864C185.29 12.6293 186.858 12.3947 188.394 12.16C189.951 11.904 191.359 11.6693 192.618 11.456C193.898 11.2213 194.922 11.0187 195.69 10.848C196.116 10.6987 196.479 10.7307 196.778 10.944C197.076 11.136 197.226 11.4453 197.226 11.872Z" fill="#42080A"/>
</svg>
